<svg width="134" height="27" viewBox="0 0 134 27" fill="none" xmlns="http://www.w3.org/2000/svg">
<g clip-path="url(#clip0_1_651)">
<path d="M10.4599 -1.90735e-06H5.22998V5.23815H10.4599V-1.90735e-06Z" fill="#212121"/>
<path d="M5.22991 5.23819H0V10.4763H5.22991V5.23819Z" fill="#212121"/>
<path d="M10.4599 10.4767H5.22998V15.7149H10.4599V10.4767Z" fill="#212121"/>
<path d="M26.15 5.0203H10.46V10.2585H26.15V5.0203Z" fill="#212121"/>
<path fill-rule="evenodd" clip-rule="evenodd" d="M20.8371 15.7149H10.46V15.7565H10.4185V26.1503H15.6487V20.9534H20.8371V15.7149Z" fill="#212121"/>
</g>
<path d="M120.137 16.8338C120.137 15.7553 120.304 14.779 120.639 13.905C120.974 13.0124 121.438 12.2499 122.034 11.6177C122.647 10.9854 123.382 10.5019 124.237 10.1672C125.093 9.81384 126.041 9.63718 127.082 9.63718C127.901 9.63718 128.691 9.81384 129.453 10.1672C130.216 10.5019 130.802 10.9203 131.211 11.4224V9.77665H134V23.7236H131.211V22.2453C130.783 22.7845 130.188 23.2216 129.425 23.5563C128.682 23.8724 127.901 24.0305 127.082 24.0305C126.041 24.0305 125.093 23.8631 124.237 23.5284C123.382 23.1751 122.647 22.6823 122.034 22.05C121.438 21.4177 120.974 20.6646 120.639 19.7906C120.304 18.898 120.137 17.9124 120.137 16.8338ZM122.926 16.8338C122.926 18.1727 123.298 19.242 124.042 20.0416C124.804 20.8413 125.818 21.2411 127.082 21.2411C128.328 21.2411 129.323 20.8413 130.067 20.0416C130.829 19.242 131.211 18.1727 131.211 16.8338C131.211 15.4949 130.829 14.4256 130.067 13.626C129.323 12.8264 128.328 12.4266 127.082 12.4266C125.818 12.4266 124.804 12.8264 124.042 13.626C123.298 14.4256 122.926 15.4949 122.926 16.8338Z" fill="#212121"/>
<path d="M113.518 6.42936V9.77663H118.456V12.0082H113.518V19.3164C113.518 20.0044 113.714 20.5437 114.104 20.9342C114.513 21.3061 115.071 21.4921 115.778 21.4921C116.41 21.4921 117.089 21.3433 117.814 21.0458V23.7236C117.461 23.798 117.117 23.8445 116.782 23.8631C116.466 23.9003 116.15 23.9189 115.834 23.9189C114.216 23.9189 112.96 23.5191 112.068 22.7194C111.175 21.9198 110.729 20.7855 110.729 19.3164V12.0082H108.135V11.3108L110.729 9.80453V6.42936H113.518Z" fill="#212121"/>
<path d="M101.366 9.38616C102.631 9.38616 103.756 9.60002 104.741 10.0277C105.727 10.4368 106.526 11.0412 107.14 11.8408L105.494 13.905C105.308 13.6818 105.076 13.468 104.797 13.2634C104.537 13.0403 104.239 12.8357 103.904 12.6498C103.57 12.4638 103.198 12.315 102.789 12.2035C102.398 12.0919 101.98 12.0361 101.533 12.0361C100.715 12.0361 99.9993 12.1291 99.3856 12.315C98.7905 12.4824 98.4279 12.8357 98.2977 13.375C98.1861 13.8771 98.4093 14.3141 98.9672 14.686C99.5436 15.0393 100.306 15.216 101.254 15.216C102.203 15.216 103.058 15.3369 103.821 15.5786C104.583 15.8204 105.215 16.1551 105.718 16.5828C106.238 17.0105 106.619 17.5312 106.861 18.1449C107.103 18.7585 107.187 19.4466 107.112 20.209C107.001 21.4364 106.433 22.3941 105.411 23.0821C104.407 23.7516 103.086 24.0863 101.45 24.0863C100.185 24.0863 99.0602 23.8817 98.0746 23.4726C97.089 23.0449 96.2894 22.4313 95.6757 21.6316L97.3214 19.5675C97.5074 19.7906 97.7305 20.0138 97.9909 20.2369C98.2698 20.4415 98.5767 20.6367 98.9114 20.8227C99.2461 21.0087 99.6087 21.1574 99.9993 21.269C100.408 21.3806 100.836 21.4364 101.282 21.4364C102.175 21.4364 102.91 21.2969 103.486 21.018C104.081 20.7204 104.425 20.3113 104.518 19.7906C104.741 18.4145 103.653 17.68 101.254 17.587C99.3391 17.5126 97.8979 17.0849 96.9309 16.3039C95.9639 15.5042 95.5548 14.3885 95.7036 12.9566C95.8152 11.8408 96.373 10.9668 97.3772 10.3346C98.4 9.7023 99.7296 9.38616 101.366 9.38616Z" fill="#212121"/>
<path d="M86.6865 9.63718C87.765 9.63718 88.732 9.83244 89.5874 10.223C90.4614 10.6135 91.196 11.1714 91.791 11.8966C92.4047 12.6032 92.8696 13.468 93.1858 14.4907C93.5205 15.5135 93.6878 16.6665 93.6878 17.9496H82.7255C82.9301 18.9538 83.3857 19.7534 84.0923 20.3485C84.799 20.9435 85.6823 21.2411 86.7422 21.2411C87.5047 21.2411 88.1834 21.0644 88.7785 20.7111C89.3922 20.3578 89.8571 19.958 90.1732 19.5117L92.2931 21.4642C91.6609 22.3011 90.8613 22.9333 89.8943 23.361C88.9273 23.7701 87.8394 23.9747 86.6307 23.9747C85.6079 23.9747 84.6688 23.798 83.8134 23.4447C82.9766 23.0728 82.2513 22.5707 81.6376 21.9384C81.024 21.2876 80.5405 20.5344 80.1872 19.679C79.8524 18.805 79.6851 17.8566 79.6851 16.8338C79.6851 15.7739 79.8524 14.8069 80.1872 13.9329C80.5405 13.0402 81.024 12.2778 81.6376 11.6455C82.2513 11.0133 82.9858 10.5205 83.8413 10.1672C84.7153 9.81384 85.6637 9.63718 86.6865 9.63718ZM86.7701 12.4266C85.8031 12.4266 84.9756 12.6683 84.2876 13.1518C83.6181 13.6353 83.1439 14.3048 82.865 15.1602H90.6474C90.3685 14.3048 89.8943 13.6353 89.2248 13.1518C88.5553 12.6683 87.7371 12.4266 86.7701 12.4266Z" fill="#212121"/>
<path d="M72.2049 9.77676V12.4546C72.4095 12.0455 72.7256 11.6643 73.1533 11.3109C73.581 10.939 74.0831 10.6229 74.6596 10.3625C75.2361 10.0836 75.859 9.86974 76.5285 9.72097C77.2165 9.55361 77.8953 9.46993 78.5648 9.46993V12.2593C77.7279 12.2593 76.919 12.3709 76.138 12.5941C75.3755 12.7986 74.6968 13.0775 74.1017 13.4309C73.5252 13.7842 73.0603 14.1933 72.707 14.6582C72.3723 15.1231 72.2049 15.6066 72.2049 16.1087V23.7238H69.4155V9.77676H72.2049Z" fill="#212121"/>
<path d="M53.0439 16.8338C53.0439 15.7553 53.2113 14.779 53.546 13.905C53.8808 13.0124 54.3457 12.2499 54.9407 11.6177C55.5544 10.9854 56.2889 10.5019 57.1444 10.1672C57.9998 9.81384 58.9482 9.63718 59.9895 9.63718C61.0309 9.63718 61.97 9.81384 62.8068 10.1672C63.6623 10.5019 64.3875 10.9854 64.9826 11.6177C65.5962 12.2499 66.0704 13.0124 66.4052 13.905C66.7399 14.779 66.9073 15.7553 66.9073 16.8338C66.9073 17.9124 66.7399 18.898 66.4052 19.7906C66.0704 20.6646 65.5962 21.4177 64.9826 22.05C64.3875 22.6823 63.6623 23.1751 62.8068 23.5284C61.97 23.8631 61.0309 24.0305 59.9895 24.0305C58.9482 24.0305 57.9998 23.8631 57.1444 23.5284C56.2889 23.1751 55.5544 22.6823 54.9407 22.05C54.3457 21.4177 53.8808 20.6646 53.546 19.7906C53.2113 18.898 53.0439 17.9124 53.0439 16.8338ZM55.8333 16.8338C55.8333 18.1727 56.2053 19.242 56.9491 20.0416C57.7115 20.8413 58.725 21.2411 59.9895 21.2411C61.2355 21.2411 62.2304 20.8413 62.9742 20.0416C63.7366 19.242 64.1179 18.1727 64.1179 16.8338C64.1179 15.4949 63.7366 14.4256 62.9742 13.626C62.2304 12.8264 61.2355 12.4266 59.9895 12.4266C58.725 12.4266 57.7115 12.8264 56.9491 13.626C56.2053 14.4256 55.8333 15.4949 55.8333 16.8338Z" fill="#212121"/>
<path d="M50.5487 5.59254V23.7236H47.7593V5.59254H50.5487Z" fill="#212121"/>
<path d="M33.1587 5.59256H45.2647V8.35407H35.9481V13.2634H45.2647V16.0528H35.9481V23.7237H33.1587V5.59256Z" fill="#212121"/>
<defs>
<clipPath id="clip0_1_651">
<rect width="26.1503" height="26.1503" fill="white"/>
</clipPath>
</defs>
</svg>
